<?xml version="1.0" encoding="iso-8859-1"?>
<!-- Uploaded to: SVG Repo, www.svgrepo.com, Generator: SVG Repo Mixer Tools -->
<!DOCTYPE svg PUBLIC "-//W3C//DTD SVG 1.1//EN" "http://www.w3.org/Graphics/SVG/1.1/DTD/svg11.dtd">
<svg fill="#000000" version="1.1" id="Capa_1" xmlns="http://www.w3.org/2000/svg" xmlns:xlink="http://www.w3.org/1999/xlink" 
	 width="800px" height="800px" viewBox="0 0 488.072 488.073"
	 xml:space="preserve">
<g>
	<g>
		<path d="M233.278,342.335c-1.727,0-3.453-0.446-5-1.34c-3.094-1.786-5-5.088-5-8.66v-45.899H101.853c-5.522,0-10-4.477-10-10
			v-64.799c0-5.522,4.478-10,10-10h121.425v-45.898c0-3.572,1.906-6.874,5-8.66c3.094-1.787,6.906-1.787,10,0l152.938,88.299
			c3.095,1.786,5,5.088,5,8.66c0,3.572-1.905,6.874-5,8.66l-152.938,88.299C236.731,341.889,235.005,342.335,233.278,342.335z
			 M111.853,266.436h121.425c5.522,0,10,4.479,10,10v38.578l122.939-70.978l-122.938-70.979v38.579c0,5.523-4.478,10-10,10H111.853
			V266.436z"/>
	</g>
	<g>
		<path d="M244.035,488.072c-65.185,0-126.467-25.384-172.559-71.478C25.384,370.503,0,309.221,0,244.037
			c0-65.185,25.384-126.467,71.476-172.56C117.568,25.385,178.851,0,244.035,0c65.185,0,126.467,25.384,172.56,71.477
			c46.094,46.093,71.478,107.375,71.478,172.56c0,65.184-25.384,126.467-71.478,172.559
			C370.502,462.688,309.22,488.072,244.035,488.072z M244.035,20C184.193,20,127.933,43.305,85.618,85.62
			C43.304,127.935,20,184.195,20,244.037s23.304,116.103,65.618,158.417c42.315,42.314,98.575,65.618,158.417,65.618
			s116.103-23.305,158.417-65.618c42.315-42.314,65.619-98.575,65.619-158.417S444.768,127.935,402.452,85.62
			C360.138,43.305,303.877,20,244.035,20z"/>
	</g>
</g>
</svg>